<svg fill="none" viewBox="0 0 57 48" xmlns="http://www.w3.org/2000/svg">
  <g clip-path="url(#b)">
    <mask id="a" x="0" y="0" width="57" height="48" style="mask-type:luminance" maskUnits="userSpaceOnUse">
      <path d="m6.1035e-5 0.041229h56.817v47.725h-56.817v-47.725z" fill="#fff"/>
    </mask>
    <g mask="url(#a)">
      <path d="m49.828 9.4869c-6.4792-5.493-15.954-10.244-27.799-9.333-1.3267 0.1021-2.6662 0.25462-4.0154 0.4632-20.703 3.197-22.511 28.814-10.768 40.89 6.4852 6.6703 17.102 9.2108 30.955 1.5644 4.1535-2.2928 7.5544-4.6361 10.281-6.9866 12.181-10.5 9.5797-19.617 1.3457-26.598z" clip-rule="evenodd" fill="#FF0080" fill-rule="evenodd"/>
    </g>
    <path d="m36.892 26.466c-2.2008-1.5402-6.0661-0.072-8.4833 0.2687 3.0896-2.9715 11.332-6.2127 8.0968-9.9872-3.8171-4.6348-14.86-3.3398-17.177-0.5449-0.8701 1.0491-1.0906 2.999 0.2728 3.8168 2.7266 1.9085 8.8074-0.2728 8.8074-0.2728-3.5447 2.9994-11.261 5.7257-9.3527 10.088 0.9167 1.9483 3.0877 2.9301 5.6994 3.2352 4.7779 0.7829 10.79-0.8337 12.409-2.7868 0.87-1.0491 1.0908-2.999-0.2725-3.8171z" clip-rule="evenodd" fill="#fff" fill-rule="evenodd"/>
  </g>
  <defs>
    <clipPath id="b">
      <rect width="57" height="48" fill="#fff"/>
    </clipPath>
  </defs>
</svg>
